<?xml version="1.0" encoding="UTF-8" standalone="no"?>
<!-- Created with Inkscape (http://www.inkscape.org/) -->

<svg
   xmlns:dc="http://purl.org/dc/elements/1.1/"
   xmlns:cc="http://creativecommons.org/ns#"
   xmlns:rdf="http://www.w3.org/1999/02/22-rdf-syntax-ns#"
   xmlns:svg="http://www.w3.org/2000/svg"
   xmlns="http://www.w3.org/2000/svg"
   xmlns:xlink="http://www.w3.org/1999/xlink"
   xmlns:sodipodi="http://sodipodi.sourceforge.net/DTD/sodipodi-0.dtd"
   xmlns:inkscape="http://www.inkscape.org/namespaces/inkscape"
   width="210mm"
   height="297mm"
   viewBox="0 0 210 297"
   version="1.1"
   id="svg8"
   inkscape:version="0.92.5 (2060ec1f9f, 2020-04-08)"
   sodipodi:docname="logo.svg">
  <defs
     id="defs2">
    <linearGradient
       inkscape:collect="always"
       id="linearGradient831">
      <stop
         style="stop-color:#ff7a02;stop-opacity:1;"
         offset="0"
         id="stop827" />
      <stop
         style="stop-color:#ff7a02;stop-opacity:0;"
         offset="1"
         id="stop829" />
    </linearGradient>
    <linearGradient
       inkscape:collect="always"
       xlink:href="#linearGradient831"
       id="linearGradient833"
       x1="84.897278"
       y1="76.213501"
       x2="124.11507"
       y2="134.16707"
       gradientUnits="userSpaceOnUse"
       gradientTransform="matrix(1.5693866,0,0,1.5693866,-3.2007617,-57.87037)" />
    <linearGradient
       inkscape:collect="always"
       xlink:href="#linearGradient831"
       id="linearGradient847"
       gradientUnits="userSpaceOnUse"
       gradientTransform="matrix(1.5693866,0,0,1.5693866,-269.29751,26.601265)"
       x1="84.897278"
       y1="76.213501"
       x2="124.11507"
       y2="134.16707" />
    <linearGradient
       inkscape:collect="always"
       xlink:href="#linearGradient831"
       id="linearGradient898"
       gradientUnits="userSpaceOnUse"
       gradientTransform="matrix(1.5693866,0,0,1.5693866,-269.29751,26.601265)"
       x1="84.897278"
       y1="76.213501"
       x2="124.11507"
       y2="134.16707" />
  </defs>
  <sodipodi:namedview
     id="base"
     pagecolor="#ffffff"
     bordercolor="#666666"
     borderopacity="1.0"
     inkscape:pageopacity="0.0"
     inkscape:pageshadow="2"
     inkscape:zoom="0.35"
     inkscape:cx="8.6942127"
     inkscape:cy="-210.48807"
     inkscape:document-units="mm"
     inkscape:current-layer="g930"
     showgrid="false"
     inkscape:window-width="1920"
     inkscape:window-height="1025"
     inkscape:window-x="3840"
     inkscape:window-y="28"
     inkscape:window-maximized="1" />
  <metadata
     id="metadata5">
    <rdf:RDF>
      <cc:Work
         rdf:about="">
        <dc:format>image/svg+xml</dc:format>
        <dc:type
           rdf:resource="http://purl.org/dc/dcmitype/StillImage" />
        <dc:title></dc:title>
      </cc:Work>
    </rdf:RDF>
  </metadata>
  <g
     inkscape:label="Layer 1"
     inkscape:groupmode="layer"
     id="layer1">
    <text
       xml:space="preserve"
       style="font-style:normal;font-variant:normal;font-weight:normal;font-stretch:normal;font-size:38.4058609px;line-height:1.25;font-family:'padmaa-Bold.1.1';-inkscape-font-specification:'padmaa-Bold.1.1';letter-spacing:0px;word-spacing:0px;fill:url(#linearGradient833);fill-opacity:1;stroke:none;stroke-width:0.90013731"
       x="96.300026"
       y="174.56279"
       id="text821"><tspan
         sodipodi:role="line"
         id="tspan819"
         x="96.300026"
         y="174.56279"
         style="font-style:normal;font-variant:normal;font-weight:normal;font-stretch:normal;font-size:172.82637024px;font-family:'Lohit Telugu';-inkscape-font-specification:'Lohit Telugu';fill:url(#linearGradient833);fill-opacity:1;stroke-width:0.90013731">2</tspan></text>
    <text
       xml:space="preserve"
       style="font-style:normal;font-variant:normal;font-weight:normal;font-stretch:normal;font-size:11.28888893px;line-height:1.25;font-family:'padmaa-Bold.1.1';-inkscape-font-specification:'padmaa-Bold.1.1';letter-spacing:0px;word-spacing:0px;fill:#000000;fill-opacity:1;stroke:none;stroke-width:0.26458332"
       x="127"
       y="161.68454"
       id="text825"><tspan
         sodipodi:role="line"
         id="tspan823"
         x="127"
         y="161.68454"
         style="font-style:normal;font-variant:normal;font-weight:normal;font-stretch:normal;font-size:22.57777786px;font-family:'Nimbus Mono PS';-inkscape-font-specification:'Nimbus Mono PS';stroke-width:0.26458332">DOOR</tspan></text>
    <text
       xml:space="preserve"
       style="font-style:normal;font-variant:normal;font-weight:normal;font-stretch:normal;font-size:11.28888893px;line-height:1.25;font-family:'padmaa-Bold.1.1';-inkscape-font-specification:'padmaa-Bold.1.1';letter-spacing:0px;word-spacing:0px;fill:#000000;fill-opacity:1;stroke:none;stroke-width:0.26458332"
       x="110.36905"
       y="98.184517"
       id="text817"><tspan
         sodipodi:role="line"
         id="tspan815"
         x="110.36905"
         y="98.184517"
         style="font-style:normal;font-variant:normal;font-weight:normal;font-stretch:normal;font-size:22.57777786px;font-family:'Nimbus Mono PS';-inkscape-font-specification:'Nimbus Mono PS';stroke-width:0.26458332">FARM</tspan></text>
    <g
       id="g855">
      <text
         transform="rotate(30)"
         xml:space="preserve"
         style="font-style:normal;font-variant:normal;font-weight:normal;font-stretch:normal;font-size:38.4058609px;line-height:1.25;font-family:'padmaa-Bold.1.1';-inkscape-font-specification:'padmaa-Bold.1.1';letter-spacing:0px;word-spacing:0px;fill:url(#linearGradient847);fill-opacity:1;stroke:none;stroke-width:0.90013731"
         x="-169.79672"
         y="259.03442"
         id="text837"><tspan
           sodipodi:role="line"
           id="tspan835"
           x="-169.79672"
           y="259.03442"
           style="font-style:normal;font-variant:normal;font-weight:normal;font-stretch:normal;font-size:172.82637024px;font-family:'Lohit Telugu';-inkscape-font-specification:'Lohit Telugu';fill:url(#linearGradient847);fill-opacity:1;stroke-width:0.90013731">2</tspan></text>
      <text
         xml:space="preserve"
         style="font-style:normal;font-variant:normal;font-weight:normal;font-stretch:normal;font-size:11.28888893px;line-height:1.25;font-family:'padmaa-Bold.1.1';-inkscape-font-specification:'padmaa-Bold.1.1';letter-spacing:0px;word-spacing:0px;fill:#000000;fill-opacity:1;stroke:none;stroke-width:0.26458332"
         x="-226.59673"
         y="148.64436"
         id="text841"><tspan
           sodipodi:role="line"
           id="tspan839"
           x="-226.59673"
           y="148.64436"
           style="font-style:normal;font-variant:normal;font-weight:normal;font-stretch:normal;font-size:22.57777786px;font-family:'Nimbus Mono PS';-inkscape-font-specification:'Nimbus Mono PS';stroke-width:0.26458332">DOOR</tspan></text>
      <text
         xml:space="preserve"
         style="font-style:normal;font-variant:normal;font-weight:normal;font-stretch:normal;font-size:11.28888893px;line-height:1.25;font-family:'padmaa-Bold.1.1';-inkscape-font-specification:'padmaa-Bold.1.1';letter-spacing:0px;word-spacing:0px;fill:#000000;fill-opacity:1;stroke:none;stroke-width:0.26458332"
         x="-238.69196"
         y="100.83035"
         id="text845"><tspan
           sodipodi:role="line"
           id="tspan843"
           x="-238.69196"
           y="100.83035"
           style="font-style:normal;font-variant:normal;font-weight:normal;font-stretch:normal;font-size:22.57777786px;font-family:'Nimbus Mono PS';-inkscape-font-specification:'Nimbus Mono PS';stroke-width:0.26458332">FARM</tspan></text>
    </g>
    <g
       id="g896"
       transform="translate(-49.71213,424.95855)">
      <g
         id="g930">
        <g
           aria-label="2"
           transform="rotate(30)"
           style="font-style:normal;font-variant:normal;font-weight:normal;font-stretch:normal;font-size:38.4058609px;line-height:1.25;font-family:'padmaa-Bold.1.1';-inkscape-font-specification:'padmaa-Bold.1.1';letter-spacing:0px;word-spacing:0px;fill:url(#linearGradient898);fill-opacity:1;stroke:none;stroke-width:0.90013731"
           id="text886">
          <path
             d="m -85.577622,259.03442 h -70.717038 v -6.75103 q 0,-8.94511 3.20674,-16.20247 3.20674,-7.25736 8.43878,-12.15185 5.23205,-5.06328 11.47676,-9.45144 6.2447,-4.38817 12.4894,-8.43879 6.2447,-4.05062 11.47675,-8.27001 5.23205,-4.2194 8.43879,-9.95777 3.20674,-5.90715 3.20674,-12.82696 0,-9.28267 -6.2447,-14.85227 -6.07593,-5.5696 -16.37125,-5.5696 -17.04635,0 -25.82269,12.99574 l -8.60756,-6.07593 q 11.64552,-17.04635 34.43025,-17.04635 15.52737,0 24.810034,8.27001 9.282667,8.27001 9.282667,22.2784 0,10.63287 -5.738376,19.24043 -5.738375,8.43879 -14.177165,14.34594 -8.43879,5.73838 -16.87757,11.30798 -8.43879,5.40082 -15.02105,12.82696 -6.41347,7.25735 -7.42613,16.20247 h 59.746618 z"
             style="font-style:normal;font-variant:normal;font-weight:normal;font-stretch:normal;font-size:172.82637024px;font-family:'Lohit Telugu';-inkscape-font-specification:'Lohit Telugu';fill:url(#linearGradient898);fill-opacity:1;stroke-width:0.90013731"
             id="path965" />
        </g>
        <g
           id="text890"
           style="font-style:normal;font-variant:normal;font-weight:normal;font-stretch:normal;font-size:11.28888893px;line-height:1.25;font-family:'padmaa-Bold.1.1';-inkscape-font-specification:'padmaa-Bold.1.1';letter-spacing:0px;word-spacing:0px;fill:#000000;fill-opacity:1;stroke:none;stroke-width:0.26458332"
           aria-label="DOOR">
          <path
             id="path909"
             style="font-style:normal;font-variant:normal;font-weight:normal;font-stretch:normal;font-size:22.57777786px;font-family:'Nimbus Mono PS';-inkscape-font-specification:'Nimbus Mono PS';stroke-width:0.26458332"
             d="m -224.36153,147.4929 h -0.65475 c -0.47413,0 -0.72249,0.2032 -0.72249,0.56444 0,0.38382 0.24836,0.58702 0.72249,0.58702 h 4.98969 c 2.93511,0.0226 5.2832,-2.50613 5.30578,-5.73475 v -1.24178 c -0.0226,-3.22862 -2.37067,-5.75733 -5.30578,-5.73476 h -4.98969 c -0.47413,0 -0.72249,0.18063 -0.72249,0.56445 0,0.38382 0.24836,0.58702 0.72249,0.58702 h 0.65475 z m 1.17405,0 v -10.40836 h 3.11573 c 2.14489,-0.15804 4.064,1.87396 4.17689,4.38009 v 1.6256 c -0.0452,2.34809 -1.98684,4.44782 -4.04142,4.40267 z" />
          <path
             id="path911"
             style="font-style:normal;font-variant:normal;font-weight:normal;font-stretch:normal;font-size:22.57777786px;font-family:'Nimbus Mono PS';-inkscape-font-specification:'Nimbus Mono PS';stroke-width:0.26458332"
             d="m -206.18645,135.66214 c -3.29635,0 -5.82507,2.91253 -5.82507,6.68302 0,3.72534 2.55129,6.66045 5.73476,6.66045 3.22862,0 5.75733,-2.93511 5.75733,-6.68302 0,-3.68018 -2.52871,-6.66045 -5.66702,-6.66045 z m -0.13547,1.15147 c 2.57387,0 4.62845,2.4384 4.62845,5.53155 0,3.02543 -2.05458,5.50898 -4.58329,5.50898 -2.50613,0 -4.56071,-2.48355 -4.56071,-5.53155 0,-3.00285 2.05458,-5.50898 4.51555,-5.50898 z" />
          <path
             id="path913"
             style="font-style:normal;font-variant:normal;font-weight:normal;font-stretch:normal;font-size:22.57777786px;font-family:'Nimbus Mono PS';-inkscape-font-specification:'Nimbus Mono PS';stroke-width:0.26458332"
             d="m -192.63982,135.66214 c -3.29635,0 -5.82506,2.91253 -5.82506,6.68302 0,3.72534 2.55128,6.66045 5.73475,6.66045 3.22862,0 5.75733,-2.93511 5.75733,-6.68302 0,-3.68018 -2.52871,-6.66045 -5.66702,-6.66045 z m -0.13546,1.15147 c 2.57386,0 4.62844,2.4384 4.62844,5.53155 0,3.02543 -2.05458,5.50898 -4.58329,5.50898 -2.50613,0 -4.56071,-2.48355 -4.56071,-5.53155 0,-3.00285 2.05458,-5.50898 4.51556,-5.50898 z" />
          <path
             id="path915"
             style="font-style:normal;font-variant:normal;font-weight:normal;font-stretch:normal;font-size:22.57777786px;font-family:'Nimbus Mono PS';-inkscape-font-specification:'Nimbus Mono PS';stroke-width:0.26458332"
             d="m -182.09603,143.09023 h 2.8448 c 1.69333,0.79022 2.6416,1.94169 4.65102,5.55413 h 1.33209 c 0.47414,0 0.74507,-0.2032 0.74507,-0.58702 0,-0.36124 -0.24836,-0.56444 -0.74507,-0.56444 h -0.6096 c -1.73849,-2.93511 -2.41582,-3.83823 -3.70275,-4.74134 1.94169,-0.65475 3.00284,-1.80622 3.00284,-3.2512 0,-1.91911 -1.91911,-3.56729 -4.17689,-3.56729 h -5.62186 c -0.47414,0 -0.72249,0.18063 -0.72249,0.56445 0,0.38382 0.24835,0.58702 0.72249,0.58702 h 1.10631 v 10.40836 h -1.10631 c -0.47414,0 -0.72249,0.2032 -0.72249,0.56444 0,0.38382 0.24835,0.58702 0.72249,0.58702 h 3.83822 c 0.47413,0 0.74506,-0.2032 0.74506,-0.58702 0,-0.36124 -0.24835,-0.56444 -0.74506,-0.56444 h -1.55787 z m 0,-1.15147 v -4.85422 h 3.31893 c 1.58045,0 3.02543,1.15147 3.02543,2.41582 0,1.33209 -1.76107,2.4384 -3.88338,2.4384 z" />
        </g>
        <g
           id="text894"
           style="font-style:normal;font-variant:normal;font-weight:normal;font-stretch:normal;font-size:11.28888893px;line-height:1.25;font-family:'padmaa-Bold.1.1';-inkscape-font-specification:'padmaa-Bold.1.1';letter-spacing:0px;word-spacing:0px;fill:#000000;fill-opacity:1;stroke:none;stroke-width:0.26458332"
           aria-label="FARM">
          <path
             id="path900"
             style="font-style:normal;font-variant:normal;font-weight:normal;font-stretch:normal;font-size:22.57777786px;font-family:'Nimbus Mono PS';-inkscape-font-specification:'Nimbus Mono PS';stroke-width:0.26458332"
             d="m -234.83116,94.824664 h 3.02543 v 0.880533 c 0,0.474134 0.2032,0.699911 0.58702,0.699911 0.38382,0 0.58702,-0.248355 0.58702,-0.699911 v -2.912533 c 0,-0.474133 -0.2032,-0.722489 -0.58702,-0.722489 -0.38382,0 -0.58702,0.248356 -0.58702,0.722489 v 0.880533 h -3.02543 v -4.402666 h 6.84107 v 2.054577 c 0,0.474134 0.2032,0.722489 0.58702,0.722489 0.38383,0 0.58703,-0.248355 0.58703,-0.722489 v -3.206044 h -10.29547 c -0.47413,0 -0.72249,0.2032 -0.72249,0.564444 0,0.383823 0.24836,0.587023 0.72249,0.587023 h 1.10631 v 10.408355 h -1.10631 c -0.47413,0 -0.72249,0.2032 -0.72249,0.564444 0,0.38382 0.24836,0.58702 0.72249,0.58702 h 5.2832 c 0.47413,0 0.74507,-0.2032 0.74507,-0.58702 0,-0.361244 -0.24836,-0.564444 -0.74507,-0.564444 h -3.00285 z" />
          <path
             id="path902"
             style="font-style:normal;font-variant:normal;font-weight:normal;font-stretch:normal;font-size:22.57777786px;font-family:'Nimbus Mono PS';-inkscape-font-specification:'Nimbus Mono PS';stroke-width:0.26458332"
             d="m -215.54977,96.676042 1.15147,3.002844 h -1.53529 c -0.47413,0 -0.72249,0.2032 -0.72249,0.564444 0,0.38382 0.24836,0.58702 0.72249,0.58702 h 3.52213 c 0.47414,0 0.74507,-0.2032 0.74507,-0.58702 0,-0.361244 -0.24836,-0.564444 -0.74507,-0.564444 h -0.74506 l -4.44783,-11.559822 h -4.6736 c -0.49671,0 -0.74506,0.180622 -0.74506,0.564444 0,0.383823 0.27093,0.587023 0.74506,0.587023 h 2.50614 l -3.92854,10.408355 h -0.63217 c -0.47414,0 -0.72249,0.2032 -0.72249,0.564444 0,0.38382 0.27093,0.58702 0.72249,0.58702 h 3.40924 c 0.47413,0 0.74507,-0.2032 0.74507,-0.58702 0,-0.361244 -0.24836,-0.564444 -0.74507,-0.564444 h -1.60302 l 1.12889,-3.002844 z m -0.45155,-1.151467 h -4.94454 l 2.34809,-6.254044 h 0.18062 z" />
          <path
             id="path904"
             style="font-style:normal;font-variant:normal;font-weight:normal;font-stretch:normal;font-size:22.57777786px;font-family:'Nimbus Mono PS';-inkscape-font-specification:'Nimbus Mono PS';stroke-width:0.26458332"
             d="m -207.73789,95.276219 h 2.8448 c 1.69333,0.790223 2.6416,1.941689 4.65102,5.554131 h 1.33209 c 0.47413,0 0.74507,-0.2032 0.74507,-0.58702 0,-0.361244 -0.24836,-0.564444 -0.74507,-0.564444 h -0.6096 c -1.73849,-2.935111 -2.41582,-3.838222 -3.70276,-4.741333 1.94169,-0.654756 3.00285,-1.806222 3.00285,-3.2512 0,-1.919111 -1.91911,-3.567289 -4.17689,-3.567289 h -5.62187 c -0.47413,0 -0.72249,0.180622 -0.72249,0.564444 0,0.383823 0.24836,0.587023 0.72249,0.587023 h 1.10631 v 10.408355 h -1.10631 c -0.47413,0 -0.72249,0.2032 -0.72249,0.564444 0,0.38382 0.24836,0.58702 0.72249,0.58702 h 3.83822 c 0.47414,0 0.74507,-0.2032 0.74507,-0.58702 0,-0.361244 -0.24835,-0.564444 -0.74507,-0.564444 h -1.55786 z m 0,-1.151466 v -4.854222 h 3.31893 c 1.58045,0 3.02542,1.151466 3.02542,2.415822 0,1.332089 -1.76106,2.4384 -3.88337,2.4384 z" />
          <path
             id="path906"
             style="font-style:normal;font-variant:normal;font-weight:normal;font-stretch:normal;font-size:22.57777786px;font-family:'Nimbus Mono PS';-inkscape-font-specification:'Nimbus Mono PS';stroke-width:0.26458332"
             d="m -190.60139,97.082442 3.52213,-7.789334 v 10.385778 h -1.55787 c -0.47413,0 -0.72248,0.2032 -0.72248,0.564444 0,0.38382 0.27093,0.58702 0.72248,0.58702 h 3.38667 c 0.47413,0 0.72249,-0.2032 0.72249,-0.58702 0,-0.361244 -0.24836,-0.564444 -0.72249,-0.564444 h -0.65475 V 89.270531 h 0.45155 c 0.47413,0 0.72249,-0.2032 0.72249,-0.587023 0,-0.383822 -0.24836,-0.564444 -0.72249,-0.564444 h -2.34809 l -3.40924,7.540978 -3.4544,-7.540978 h -2.32551 c -0.47414,0 -0.72249,0.2032 -0.72249,0.564444 0,0.383823 0.24835,0.587023 0.72249,0.587023 h 0.45155 v 10.408355 h -0.65475 c -0.47414,0 -0.72249,0.2032 -0.72249,0.564444 0,0.38382 0.27093,0.58702 0.72249,0.58702 h 3.38666 c 0.47414,0 0.74507,-0.2032 0.74507,-0.58702 0,-0.361244 -0.24836,-0.564444 -0.74507,-0.564444 h -1.55786 v -10.3632 l 3.56729,7.766756 z" />
        </g>
      </g>
    </g>
  </g>
</svg>
