<svg xmlns="http://www.w3.org/2000/svg" xmlns:xlink="http://www.w3.org/1999/xlink" viewBox="0 0 448.03323 508.73929"><defs><linearGradient y2="134.16707" x2="124.11507" y1="76.213501" x1="84.897278" gradientTransform="matrix(1.56939 0 0 1.56939 -269.29751 26.601265)" gradientUnits="userSpaceOnUse" id="b" xlink:href="#a"/><linearGradient id="a"><stop offset="0" stop-color="#ff7a02"/><stop offset="1" stop-color="#ff7a02" stop-opacity="0"/></linearGradient></defs><g font-weight="400" letter-spacing="0" word-spacing="0"><text y="259.03442" x="-169.79672" style="line-height:1.25;-inkscape-font-specification:'padmaa-Bold.1.1'" xml:space="preserve" transform="rotate(30.000063 831.58543505 1779.36236952) scale(3.77953)" font-size="38.4058609" font-family="padmaa-Bold.1.1" fill="url(#b)" stroke-width=".90013731"><tspan style="-inkscape-font-specification:'Lohit Telugu'" y="259.03442" x="-169.79672" font-size="172.82637024" font-family="Lohit Telugu">2</tspan></text><g aria-label="DOOR" style="line-height:1.25;-inkscape-font-specification:'padmaa-Bold.1.1'" font-size="22.57777786" font-family="Nimbus Mono PS" stroke-width=".26458332"><path d="M-224.36153 147.4929h-.65475c-.47413 0-.72249.2032-.72249.56444 0 .38382.24836.58702.72249.58702h4.98969c2.93511.0226 5.2832-2.50613 5.30578-5.73475v-1.24178c-.0226-3.22862-2.37067-5.75733-5.30578-5.73476h-4.98969c-.47413 0-.72249.18063-.72249.56445s.24836.58702.72249.58702h.65475zm1.17405 0v-10.40836h3.11573c2.14489-.15804 4.064 1.87396 4.17689 4.38009v1.6256c-.0452 2.34809-1.98684 4.44782-4.04142 4.40267zM-206.18645 135.66214c-3.29635 0-5.82507 2.91253-5.82507 6.68302 0 3.72534 2.55129 6.66045 5.73476 6.66045 3.22862 0 5.75733-2.93511 5.75733-6.68302 0-3.68018-2.52871-6.66045-5.66702-6.66045zm-.13547 1.15147c2.57387 0 4.62845 2.4384 4.62845 5.53155 0 3.02543-2.05458 5.50898-4.58329 5.50898-2.50613 0-4.56071-2.48355-4.56071-5.53155 0-3.00285 2.05458-5.50898 4.51555-5.50898zM-192.63982 135.66214c-3.29635 0-5.82506 2.91253-5.82506 6.68302 0 3.72534 2.55128 6.66045 5.73475 6.66045 3.22862 0 5.75733-2.93511 5.75733-6.68302 0-3.68018-2.52871-6.66045-5.66702-6.66045zm-.13546 1.15147c2.57386 0 4.62844 2.4384 4.62844 5.53155 0 3.02543-2.05458 5.50898-4.58329 5.50898-2.50613 0-4.56071-2.48355-4.56071-5.53155 0-3.00285 2.05458-5.50898 4.51556-5.50898zM-182.09603 143.09023h2.8448c1.69333.79022 2.6416 1.94169 4.65102 5.55413h1.33209c.47414 0 .74507-.2032.74507-.58702 0-.36124-.24836-.56444-.74507-.56444h-.6096c-1.73849-2.93511-2.41582-3.83823-3.70275-4.74134 1.94169-.65475 3.00284-1.80622 3.00284-3.2512 0-1.91911-1.91911-3.56729-4.17689-3.56729h-5.62186c-.47414 0-.72249.18063-.72249.56445s.24835.58702.72249.58702h1.10631v10.40836h-1.10631c-.47414 0-.72249.2032-.72249.56444 0 .38382.24835.58702.72249.58702h3.83822c.47413 0 .74506-.2032.74506-.58702 0-.36124-.24835-.56444-.74506-.56444h-1.55787zm0-1.15147v-4.85422h3.31893c1.58045 0 3.02543 1.15147 3.02543 2.41582 0 1.33209-1.76107 2.4384-3.88338 2.4384z" style="-inkscape-font-specification:'Nimbus Mono PS'" transform="matrix(3.77953 0 0 3.77953 1001.0924 -177.40212)"/></g><g aria-label="FARM" style="line-height:1.25;-inkscape-font-specification:'padmaa-Bold.1.1'" font-size="22.57777786" font-family="Nimbus Mono PS" stroke-width=".26458332"><path d="M-234.83116 94.824664h3.02543v.880533c0 .474134.2032.699911.58702.699911s.58702-.248355.58702-.699911v-2.912533c0-.474133-.2032-.722489-.58702-.722489s-.58702.248356-.58702.722489v.880533h-3.02543v-4.402666h6.84107v2.054577c0 .474134.2032.722489.58702.722489.38383 0 .58703-.248355.58703-.722489v-3.206044h-10.29547c-.47413 0-.72249.2032-.72249.564444 0 .383823.24836.587023.72249.587023h1.10631v10.408355h-1.10631c-.47413 0-.72249.2032-.72249.564444 0 .38382.24836.58702.72249.58702h5.2832c.47413 0 .74507-.2032.74507-.58702 0-.361244-.24836-.564444-.74507-.564444h-3.00285zM-215.54977 96.676042l1.15147 3.002844h-1.53529c-.47413 0-.72249.2032-.72249.564444 0 .38382.24836.58702.72249.58702h3.52213c.47414 0 .74507-.2032.74507-.58702 0-.361244-.24836-.564444-.74507-.564444h-.74506l-4.44783-11.559822h-4.6736c-.49671 0-.74506.180622-.74506.564444 0 .383823.27093.587023.74506.587023h2.50614l-3.92854 10.408355h-.63217c-.47414 0-.72249.2032-.72249.564444 0 .38382.27093.58702.72249.58702h3.40924c.47413 0 .74507-.2032.74507-.58702 0-.361244-.24836-.564444-.74507-.564444h-1.60302l1.12889-3.002844zm-.45155-1.151467h-4.94454l2.34809-6.254044h.18062zM-207.73789 95.276219h2.8448c1.69333.790223 2.6416 1.941689 4.65102 5.554131h1.33209c.47413 0 .74507-.2032.74507-.58702 0-.361244-.24836-.564444-.74507-.564444h-.6096c-1.73849-2.935111-2.41582-3.838222-3.70276-4.741333 1.94169-.654756 3.00285-1.806222 3.00285-3.2512 0-1.919111-1.91911-3.567289-4.17689-3.567289h-5.62187c-.47413 0-.72249.180622-.72249.564444 0 .383823.24836.587023.72249.587023h1.10631v10.408355h-1.10631c-.47413 0-.72249.2032-.72249.564444 0 .38382.24836.58702.72249.58702h3.83822c.47414 0 .74507-.2032.74507-.58702 0-.361244-.24835-.564444-.74507-.564444h-1.55786zm0-1.151466v-4.854222h3.31893c1.58045 0 3.02542 1.151466 3.02542 2.415822 0 1.332089-1.76106 2.4384-3.88337 2.4384zM-190.60139 97.082442l3.52213-7.789334v10.385778h-1.55787c-.47413 0-.72248.2032-.72248.564444 0 .38382.27093.58702.72248.58702h3.38667c.47413 0 .72249-.2032.72249-.58702 0-.361244-.24836-.564444-.72249-.564444h-.65475V89.270531h.45155c.47413 0 .72249-.2032.72249-.587023 0-.383822-.24836-.564444-.72249-.564444h-2.34809l-3.40924 7.540978-3.4544-7.540978h-2.32551c-.47414 0-.72249.2032-.72249.564444 0 .383823.24835.587023.72249.587023h.45155v10.408355h-.65475c-.47414 0-.72249.2032-.72249.564444 0 .38382.27093.58702.72249.58702h3.38666c.47414 0 .74507-.2032.74507-.58702 0-.361244-.24836-.564444-.74507-.564444h-1.55786v-10.3632l3.56729 7.766756z" style="-inkscape-font-specification:'Nimbus Mono PS'" transform="matrix(3.77953 0 0 3.77953 1001.0924 -177.40212)"/></g></g></svg>
